<svg width="36" height="36" viewBox="0 0 36 36" fill="none" xmlns="http://www.w3.org/2000/svg">
<path d="M3.00449 17.5733C3.0605 14.8099 3.0885 13.4282 4.00639 12.2454C4.17393 12.0296 4.41975 11.7731 4.62577 11.5991C5.75458 10.6461 7.24492 10.6461 10.2256 10.6461C11.2905 10.6461 11.823 10.6461 12.3305 10.5068C12.436 10.4778 12.5404 10.4444 12.6433 10.4067C13.139 10.2251 13.5836 9.91256 14.4728 9.28742C17.9808 6.82107 19.7347 5.58791 21.207 6.12362C21.4891 6.22632 21.7624 6.37458 22.0065 6.55743C23.2791 7.51116 23.3758 9.73013 23.5692 14.1681C23.6409 15.8114 23.6896 17.2178 23.6896 18C23.6896 18.7823 23.6409 20.1887 23.5692 21.8319C23.3758 26.2698 23.2791 28.4889 22.0065 29.4426C21.7624 29.6255 21.4891 29.7737 21.207 29.8764C19.7347 30.4121 17.9808 29.1789 14.4728 26.7126C13.5836 26.0874 13.139 25.775 12.6433 25.5933C12.5404 25.5555 12.436 25.5222 12.3305 25.4933C11.823 25.3539 11.2905 25.3539 10.2256 25.3539C7.24492 25.3539 5.75458 25.3539 4.62577 24.401C4.41975 24.227 4.17393 23.9705 4.00639 23.7546C3.0885 22.5717 3.0605 21.1901 3.00449 18.4268C3.00155 18.2817 3 18.1392 3 18C3 17.8608 3.00155 17.7183 3.00449 17.5733Z" fill="white"/>
<path fill-rule="evenodd" clip-rule="evenodd" d="M29.2343 8.32829C29.6732 7.93827 30.3255 8.00151 30.6912 8.46953L29.8965 9.1757C30.6912 8.46953 30.6909 8.46903 30.6912 8.46953L30.6929 8.47155L30.6947 8.47382L30.6987 8.47913L30.7091 8.49276C30.7169 8.5032 30.7266 8.51634 30.7382 8.53221C30.7613 8.56394 30.7913 8.60658 30.8273 8.66037C30.8993 8.76794 30.9953 8.92001 31.1069 9.11834C31.3302 9.51518 31.6155 10.0964 31.8966 10.8756C32.4596 12.4366 33 14.777 33 18.0003C33 21.2237 32.4596 23.5641 31.8966 25.1251C31.6155 25.9042 31.3302 26.4855 31.1069 26.8824C30.9953 27.0807 30.8993 27.2328 30.8273 27.3404C30.7913 27.3941 30.7613 27.4368 30.7382 27.4685C30.7266 27.4844 30.7169 27.4976 30.7091 27.5079L30.6987 27.5216L30.6947 27.527L30.6929 27.5292C30.6924 27.5297 30.6912 27.5312 29.8965 26.825L30.6912 27.5312C30.3255 27.9991 29.6732 28.0625 29.2343 27.6725C28.7975 27.2843 28.7367 26.5935 29.0966 26.1255C29.0975 26.1245 29.0991 26.1222 29.1014 26.1191C29.1087 26.109 29.1231 26.0888 29.1437 26.058C29.1848 25.9967 29.2505 25.8938 29.3328 25.7474C29.4974 25.4547 29.7293 24.9881 29.9655 24.3331C30.437 23.0262 30.9311 20.9543 30.9311 18.0003C30.9311 15.0464 30.437 12.9745 29.9655 11.6675C29.7293 11.0127 29.4974 10.546 29.3328 10.2534C29.2505 10.107 29.1848 10.004 29.1437 9.94268C29.1231 9.912 29.1087 9.89174 29.1014 9.88167C29.0991 9.87842 29.0975 9.87624 29.0966 9.8751" fill="white"/>
<path fill-rule="evenodd" clip-rule="evenodd" d="M26.6356 12.6239C27.1351 12.3281 27.765 12.5199 28.0423 13.0525L27.1381 13.5882C28.0423 13.0525 28.0422 13.052 28.0423 13.0525L28.0434 13.0544L28.0444 13.0565L28.0467 13.061L28.0521 13.0714L28.0653 13.0984C28.0753 13.1191 28.0876 13.1452 28.1017 13.1769C28.1299 13.2401 28.1658 13.3254 28.2063 13.4336C28.2876 13.6501 28.3876 13.9574 28.485 14.3621C28.6798 15.1725 28.8622 16.3679 28.8622 18.0005C28.8622 19.6332 28.6798 20.8285 28.485 21.6388C28.3876 22.0437 28.2876 22.351 28.2063 22.5675C28.1658 22.6756 28.1299 22.7608 28.1017 22.8241C28.0876 22.8558 28.0753 22.8819 28.0653 22.9026L28.0521 22.9296L28.0467 22.9401L28.0444 22.9446L28.0434 22.9467C28.0431 22.9471 28.0423 22.9485 27.1381 22.4128L28.0423 22.9485C27.765 23.4811 27.1351 23.673 26.6356 23.377C26.1405 23.0838 25.9594 22.4211 26.2269 21.8907L26.2338 21.8757C26.2432 21.8545 26.2612 21.8122 26.2854 21.748C26.3335 21.6198 26.4058 21.4032 26.4808 21.0909C26.6308 20.4672 26.7933 19.4563 26.7933 18.0005C26.7933 16.5447 26.6308 15.5338 26.4808 14.9101C26.4058 14.5979 26.3335 14.3812 26.2854 14.253C26.2612 14.1888 26.2432 14.1465 26.2338 14.1254L26.2269 14.1103C25.9594 13.58 26.1405 12.9173 26.6356 12.6239Z" fill="white"/>
</svg>
