<svg width="32" height="32" viewBox="0 0 32 32" fill="none" xmlns="http://www.w3.org/2000/svg">
<path d="M17 16.6773L28.3333 12.144V19.6812C27.6598 19.25 26.859 19 26 19C23.6068 19 21.6666 20.9401 21.6666 23.3333C21.6666 25.7265 23.6068 27.6667 26 27.6667C28.3932 27.6667 30.3333 25.7265 30.3333 23.3333V10.595C30.3333 9.07123 30.3333 7.79328 30.2261 6.77508C30.2109 6.63119 30.193 6.48812 30.1733 6.35463C30.07 5.65902 29.8874 5.01009 29.5352 4.4682C29.359 4.19725 29.1404 3.95308 28.8681 3.74319C28.817 3.70384 28.764 3.66569 28.7092 3.6288L28.6981 3.62144C27.7552 2.99387 26.695 3.03875 25.603 3.31703C24.5469 3.58615 23.2376 4.1342 21.632 4.80625L18.84 5.97487C18.0873 6.28983 17.4497 6.55668 16.9493 6.83307C16.4168 7.12714 15.9581 7.47398 15.6141 7.99082C15.2702 8.50767 15.1273 9.06467 15.0617 9.66939C15 10.2377 15 10.9289 15 11.7448V22.3479C14.3264 21.9167 13.5257 21.6667 12.6666 21.6667C10.2734 21.6667 8.33331 23.6068 8.33331 26C8.33331 28.3932 10.2734 30.3333 12.6666 30.3333C15.0598 30.3333 17 28.3932 17 26V16.6773Z" fill="white"/>
<path d="M10.3334 2.66667C10.3334 2.11439 9.88563 1.66667 9.33335 1.66667C8.78107 1.66667 8.33335 2.11439 8.33335 2.66667V10.3479C7.65982 9.91667 6.85911 9.66667 6.00002 9.66667C3.60678 9.66667 1.66669 11.6068 1.66669 14C1.66669 16.3932 3.60678 18.3333 6.00002 18.3333C8.39326 18.3333 10.3334 16.3932 10.3334 14V6.67267C11.2647 7.34551 12.3728 7.66667 13.3334 7.66667C13.8856 7.66667 14.3334 7.21895 14.3334 6.66667C14.3334 6.11439 13.8856 5.66667 13.3334 5.66667C12.7276 5.66667 11.9551 5.43185 11.3488 4.93116C10.7712 4.45415 10.3334 3.73047 10.3334 2.66667Z" fill="white"/>
</svg>
