<svg width="32" height="32" viewBox="0 0 32 32" fill="none" xmlns="http://www.w3.org/2000/svg">
<path fill-rule="evenodd" clip-rule="evenodd" d="M7.83844 3.83824C6.66687 5.00981 6.66687 6.89542 6.66687 10.6667V21.3333C6.66687 25.1045 6.66687 26.9901 7.83844 28.1617C9.01002 29.3333 10.8956 29.3333 14.6669 29.3333H17.3336C21.1048 29.3333 22.9904 29.3333 24.162 28.1617C25.3336 26.9901 25.3336 25.1045 25.3336 21.3333V10.6667C25.3336 6.89542 25.3336 5.00981 24.162 3.83824C22.9904 2.66666 21.1048 2.66666 17.3336 2.66666H14.6669C10.8956 2.66666 9.01002 2.66666 7.83844 3.83824ZM12.6669 24.3333C12.1146 24.3333 11.6669 24.7811 11.6669 25.3333C11.6669 25.8856 12.1146 26.3333 12.6669 26.3333H19.3336C19.8859 26.3333 20.3336 25.8856 20.3336 25.3333C20.3336 24.7811 19.8859 24.3333 19.3336 24.3333H12.6669Z" fill="white"/>
<path fill-rule="evenodd" clip-rule="evenodd" d="M2.21969 7.10558C2.71368 6.85859 3.31434 7.05882 3.56133 7.55279L4.59653 9.62318C4.92497 10.2801 4.92497 11.0533 4.59653 11.7102L3.85948 13.1843C3.81256 13.2781 3.81256 13.3885 3.85948 13.4824L4.59653 14.9565C4.92497 15.6135 4.92497 16.3867 4.59653 17.0435L3.85948 18.5176C3.81256 18.6115 3.81256 18.7219 3.85948 18.8157L4.59653 20.2899C4.92497 20.9467 4.92497 21.72 4.59653 22.3768L3.56133 24.4472C3.31434 24.9412 2.71368 25.1415 2.21969 24.8944C1.72572 24.6475 1.52549 24.0468 1.77248 23.5528L2.80768 21.4824C2.8546 21.3885 2.8546 21.2781 2.80768 21.1843L2.07062 19.7101C1.74217 19.0533 1.74217 18.28 2.07062 17.6232L2.80768 16.1491C2.8546 16.0552 2.8546 15.9448 2.80768 15.8509L2.07062 14.3768C1.74217 13.72 1.74217 12.9467 2.07062 12.2898L2.80768 10.8157C2.8546 10.7219 2.8546 10.6114 2.80768 10.5176L1.77248 8.44722C1.52549 7.95324 1.72572 7.35256 2.21969 7.10558ZM29.7808 7.10558C30.2748 7.35256 30.475 7.95324 30.228 8.44722L29.1928 10.5176C29.1459 10.6114 29.1459 10.7219 29.1928 10.8157L29.9299 12.2898C30.2583 12.9467 30.2583 13.72 29.9299 14.3768L29.1928 15.8509C29.1459 15.9448 29.1459 16.0552 29.1928 16.1491L29.9299 17.6232C30.2583 18.28 30.2583 19.0533 29.9299 19.7101L29.1928 21.1843C29.1459 21.2781 29.1459 21.3885 29.1928 21.4824L30.228 23.5528C30.475 24.0468 30.2748 24.6475 29.7808 24.8944C29.2868 25.1415 28.6862 24.9412 28.4391 24.4472L27.4039 22.3768C27.0755 21.72 27.0755 20.9467 27.4039 20.2899L28.141 18.8157C28.1879 18.7219 28.1879 18.6115 28.141 18.5176L27.4039 17.0435C27.0755 16.3867 27.0755 15.6133 27.4039 14.9565L28.141 13.4824C28.1879 13.3885 28.1879 13.2781 28.141 13.1843L27.4039 11.7102C27.0755 11.0533 27.0755 10.2801 27.4039 9.62318L28.4391 7.55279C28.6862 7.05882 29.2868 6.85859 29.7808 7.10558Z" fill="white"/>
</svg>
