<svg width="18" height="18" viewBox="0 0 18 18" fill="none" xmlns="http://www.w3.org/2000/svg">
<path d="M9 1.50001C7.22085 1.48903 5.5102 2.18524 4.24434 3.43548C2.97849 4.68573 2.2611 6.3876 2.25 8.16676C2.25097 9.16851 2.47929 10.157 2.91775 11.0577C3.35621 11.9584 3.99338 12.7478 4.78125 13.3665V14.8335C4.78262 15.0537 4.82736 15.2715 4.91291 15.4745C4.99846 15.6774 5.12315 15.8615 5.27985 16.0163C5.43655 16.171 5.62219 16.2934 5.82619 16.3764C6.03018 16.4594 6.24852 16.5014 6.46875 16.5H11.5312C11.7515 16.5014 11.9698 16.4594 12.1738 16.3764C12.3778 16.2934 12.5635 16.171 12.7202 16.0163C12.8769 15.8615 13.0015 15.6774 13.0871 15.4745C13.1726 15.2715 13.2174 15.0537 13.2188 14.8335V13.3665C14.0066 12.7478 14.6438 11.9584 15.0823 11.0577C15.5207 10.157 15.749 9.16851 15.75 8.16676C15.7389 6.3876 15.0215 4.68573 13.7557 3.43548C12.4898 2.18524 10.7792 1.48903 9 1.50001ZM8.25 15H6.75V13.5C6.75 13.3011 6.82902 13.1103 6.96967 12.9697C7.11032 12.829 7.30109 12.75 7.5 12.75C7.69891 12.75 7.88968 12.829 8.03033 12.9697C8.17098 13.1103 8.25 13.3011 8.25 13.5V15ZM6.75 11.25C6.45333 11.25 6.16332 11.162 5.91664 10.9972C5.66997 10.8324 5.47771 10.5981 5.36418 10.324C5.25065 10.0499 5.22094 9.74834 5.27882 9.45737C5.3367 9.1664 5.47956 8.89912 5.68934 8.68935C5.89912 8.47957 6.16639 8.33671 6.45736 8.27883C6.74834 8.22095 7.04994 8.25066 7.32403 8.36419C7.59811 8.47772 7.83238 8.66998 7.9972 8.91665C8.16203 9.16332 8.25 9.45333 8.25 9.75001C8.25 10.1478 8.09196 10.5294 7.81066 10.8107C7.52936 11.092 7.14782 11.25 6.75 11.25ZM11.25 15H9.75V13.5C9.75 13.3011 9.82902 13.1103 9.96967 12.9697C10.1103 12.829 10.3011 12.75 10.5 12.75C10.6989 12.75 10.8897 12.829 11.0303 12.9697C11.171 13.1103 11.25 13.3011 11.25 13.5V15ZM11.25 11.25C10.9533 11.25 10.6633 11.162 10.4166 10.9972C10.17 10.8324 9.97771 10.5981 9.86418 10.324C9.75065 10.0499 9.72094 9.74834 9.77882 9.45737C9.8367 9.1664 9.97956 8.89912 10.1893 8.68935C10.3991 8.47957 10.6664 8.33671 10.9574 8.27883C11.2483 8.22095 11.5499 8.25066 11.824 8.36419C12.0981 8.47772 12.3324 8.66998 12.4972 8.91665C12.662 9.16332 12.75 9.45333 12.75 9.75001C12.75 10.1478 12.592 10.5294 12.3107 10.8107C12.0294 11.092 11.6478 11.25 11.25 11.25Z" fill="white"/>
</svg>
